<?xml version="1.0" encoding="UTF-8" standalone="no"?>
<!-- Created with Inkscape (http://www.inkscape.org/) -->

<svg
   width="128mm"
   height="128mm"
   viewBox="0 0 128 128"
   version="1.1"
   id="svg1"
   xmlns:xlink="http://www.w3.org/1999/xlink"
   xmlns="http://www.w3.org/2000/svg"
   xmlns:svg="http://www.w3.org/2000/svg">
  <defs
     id="defs1">
    <linearGradient
       id="linearGradient22">
      <stop
         style="stop-color:#f3f3f3;stop-opacity:1;"
         offset="0"
         id="stop22" />
      <stop
         style="stop-color:#f3f3f3;stop-opacity:1;"
         offset="0.5"
         id="stop24" />
      <stop
         style="stop-color:#c4c5e3;stop-opacity:1;"
         offset="0.5"
         id="stop25" />
      <stop
         style="stop-color:#c4c5e3;stop-opacity:1;"
         offset="1"
         id="stop23" />
    </linearGradient>
    <linearGradient
       id="swatch15">
      <stop
         style="stop-color:#a8b9ff;stop-opacity:1;"
         offset="0"
         id="stop15" />
    </linearGradient>
    <linearGradient
       xlink:href="#linearGradient22"
       id="linearGradient23"
       x1="0.00020512546"
       y1="64"
       x2="127.9998"
       y2="64"
       gradientUnits="userSpaceOnUse"
       spreadMethod="pad"
       gradientTransform="matrix(1,0,0,1.0169518,0,-2.0849123)" />
  </defs>
  <g
     id="layer1"
     style="display:none">
    <path
       style="fill:none;fill-opacity:0;stroke:#000000;stroke-width:2.93742;stroke-dasharray:none;stroke-opacity:1"
       id="path1"
       transform="scale(1,-1)"
       d="m 102.53129,-40.000023 a 38.531292,38.532185 0 0 1 -19.265645,33.3698511 38.531292,38.532185 0 0 1 -38.531292,-9e-7 38.531292,38.532185 0 0 1 -19.265645,-33.3698502" />
    <path
       style="fill:none;fill-opacity:0;stroke:#000000;stroke-width:2.93741;stroke-dasharray:none;stroke-opacity:1"
       id="ellipse1"
       d="m 102.53129,80 a 38.531292,38.532196 0 0 1 -19.265648,33.36986 38.531292,38.532196 0 0 1 -38.531293,0 A 38.531292,38.532196 0 0 1 25.468704,80" />
    <path
       style="fill:none;fill-opacity:0;stroke:#000000;stroke-width:2.94;stroke-dasharray:none;stroke-opacity:1"
       d="m 25.47,39.95 v 40.1"
       id="path2" />
    <path
       style="fill:none;fill-opacity:0;stroke:#000000;stroke-width:2.94;stroke-dasharray:none;stroke-opacity:1"
       d="m 102.53,39.95 v 40.1"
       id="path3" />
    <rect
       style="fill:#000000;fill-opacity:1;stroke:none;stroke-width:0;stroke-dasharray:none;stroke-opacity:1"
       id="rect4"
       width="3"
       height="12"
       x="62.5"
       y="-12"
       transform="scale(1,-1)" />
    <rect
       style="fill:#000000;fill-opacity:1;stroke:none;stroke-width:6;stroke-linecap:round;stroke-linejoin:round;stroke-dasharray:none;stroke-opacity:1;paint-order:markers stroke fill"
       id="rect3"
       width="10"
       height="24"
       x="59"
       y="-39.838196"
       rx="5"
       ry="3"
       transform="scale(1,-1)" />
    <path
       style="color:#000000;display:inline;fill:#ffffff;-inkscape-stroke:none;paint-order:markers stroke fill"
       d="m 51.212891,-127.66602 v 63.404301 c -5.934229,0.91867 -11.735118,2.275585 -17.238282,4.203125 -9.547379,3.336451 -18.410417,7.661075 -26.755859,12.302735 l -2.5957031,1.443359 0.6308593,2.902344 c 1.3137044,6.038516 2.7403709,12.025063 4.2343751,17.96289 l 1.2890627,5.123047 4.582031,-2.630859 c 9.042557,-5.194543 17.968268,-9.834857 26.990234,-12.931641 7.240964,-2.477466 14.541453,-3.999531 21.5,-3.974609 l 0.02148,0.002 0.02148,-0.002 c -0.0047,3.3e-5 0.0378,3.83e-4 0.125,0 0.04424,2.1e-5 0.0931,2.3e-5 0.08984,0 l 0.02148,0.002 0.02148,-0.002 c 6.958549,-0.02492 14.259037,1.497144 21.5,3.974609 9.021966,3.096784 17.947681,7.737099 26.990241,12.931641 l 4.58203,2.630859 1.28906,-5.123047 c 1.49395,-5.937617 2.92062,-11.924162 4.23437,-17.96289 l 0.63086,-2.902344 -2.5957,-1.443359 c -8.34544,-4.641661 -17.20848,-8.966284 -26.755861,-12.302735 -5.503217,-1.927559 -11.303954,-3.284461 -17.238282,-4.203125 v -63.404301 z m 8,8 h 9.574218 v 62.330083 l 3.548828,0.404296 c 6.559782,0.747016 12.955096,2.289188 19.048829,4.423829 h 0.002 c 8.006697,2.798039 15.549364,6.439861 22.839844,10.375 -0.72941,3.252021 -1.50398,6.487969 -2.29101,9.720703 -7.71859,-4.271032 -15.528283,-8.242321 -23.687506,-11.042969 h -0.002 -0.002 c -7.845697,-2.684729 -15.988433,-4.433428 -24.123047,-4.404297 -0.04763,-5.4e-5 -0.101718,8e-6 -0.103516,0 l -0.01758,-0.002 -0.01758,0.002 c -0.0017,7e-6 -0.05569,-5.5e-5 -0.103516,0 -8.134616,-0.02913 -16.277351,1.719569 -24.123047,4.404297 h -0.002 -0.002 c -8.159223,2.800648 -15.968914,6.771937 -23.6875,11.042969 -0.786908,-3.232683 -1.561668,-6.468605 -2.291015,-9.720703 7.290489,-3.93514 14.833147,-7.576961 22.839843,-10.375 h 0.002 0.002 c 6.093798,-2.134664 12.487116,-3.676816 19.046875,-4.423829 l 3.548829,-0.404296 z"
       id="path38"
       transform="scale(1,-1)" />
    <path
       style="color:#000000;display:inline;fill:#000000;-inkscape-stroke:none;paint-order:markers stroke fill"
       d="m 13.36766,-26.424227 c -1.485789,-5.905177 -2.901817,-11.848231 -4.204395,-17.835604 8.216305,-4.569835 16.872472,-8.78815 26.130705,-12.023555 6.350758,-2.224677 13.034568,-3.838049 19.918164,-4.62194 v -62.761544 h 17.575671 v 62.761544 c 6.883596,0.783891 13.567923,2.397263 19.918681,4.62194 9.258234,3.235405 17.914404,7.45372 26.130704,12.023555 -1.30258,5.987373 -2.71912,11.930427 -4.20491,17.835604 -9.13378,-5.246947 -18.269161,-10.015598 -27.682549,-13.246737 -7.543934,-2.581468 -15.267455,-4.216435 -22.814628,-4.189408 -0.04479,-3.14e-4 -0.09007,1.97e-4 -0.134875,0 -0.0448,1.97e-4 -0.0906,-3.14e-4 -0.135392,0 -7.547173,-0.02703 -15.270694,1.60794 -22.814628,4.189408 -9.413388,3.231139 -18.548766,7.99979 -27.682548,13.246737 z"
       id="path39"
       transform="scale(1,-1)" />
    <path
       style="fill:#000000;fill-opacity:1;stroke:none;stroke-width:6.00001;stroke-linecap:round;stroke-linejoin:miter;stroke-dasharray:none;stroke-opacity:1;paint-order:markers stroke fill"
       d="m 31,31 c 10.076373,7.297886 24,8 24,8 V 7 C 55,7 39.344753,9.9577586 31,31 Z"
       id="path7" />
  </g>
  <g
     id="layer2"
     style="display:none">
    <path
       style="display:inline;fill:#000000;fill-opacity:1;stroke:none;stroke-width:15.0047;stroke-linecap:round;stroke-linejoin:round;stroke-dasharray:none;stroke-opacity:1;paint-order:markers stroke fill"
       d="m 228.02732,165.20591 c -1.09175,-0.10644 -4.44145,-0.42713 -7.44377,-0.71264 -33.01026,-3.1392 -70.77752,-14.55703 -110.83671,-33.50827 l -5.90313,-2.79266 1.21707,-5.76598 c 4.30553,-20.39795 12.77445,-38.769285 26.12545,-56.673107 4.93512,-6.618047 19.12424,-20.683589 26.12533,-25.897802 17.70107,-13.183263 37.17463,-21.888325 57.97839,-25.917481 6.87921,-1.332327 14.51879,-2.276072 18.4247,-2.276072 h 2.50081 v 16.872533 16.872532 h 5.70689 5.70688 V 28.534431 11.661898 h 2.62014 c 6.5879,0 21.85208,2.594294 30.66418,5.211673 13.38561,3.97581 26.97611,10.35504 38.42395,18.035777 24.92555,16.723383 42.84081,39.312383 53.56956,67.544772 2.28003,5.99985 5.78633,18.67907 6.49174,23.47499 l 0.34751,2.36262 -6.38436,3.01814 c -38.37184,18.13985 -73.88872,29.04853 -107.37143,32.97814 -6.31307,0.74091 -33.12833,1.38927 -37.9632,0.9179 z m 23.71202,-16.04945 c 3.68595,-1.42436 6.75645,-3.77933 8.1611,-6.25926 l 1.11124,-1.96193 0.008,-35.62577 c 0.008,-34.38893 -0.0255,-35.691841 -0.96257,-37.52859 -2.73601,-5.363019 -9.97912,-8.262851 -19.62368,-7.856471 -7.78462,0.328012 -13.12169,2.603441 -16.187,6.901252 l -1.18178,1.656942 -0.14473,35.481947 c -0.0796,19.51507 -0.0112,36.22103 0.1521,37.12436 0.60574,3.35166 5.48151,7.16462 11.2102,8.76664 4.0774,1.14024 13.69368,0.75512 17.45696,-0.69912 z M 207.92915,86.870667 V 26.106672 l -2.60531,0.752744 c -8.15713,2.356806 -18.80607,7.186973 -26.8662,12.186026 -12.89983,8.00073 -28.10678,22.192433 -37.92408,35.392203 -8.30747,11.169751 -16.04913,24.707279 -21.45371,37.515235 l -2.1373,5.06506 1.30109,1.11915 c 3.81704,3.28327 19.34592,11.70562 27.90227,15.13326 11.93861,4.78255 29.42113,9.69465 42.42946,11.92148 6.21867,1.06454 15.43271,2.2882 17.98909,2.38901 l 1.36469,0.0538 z"
       id="path31"
       transform="scale(0.26458333)" />
    <path
       style="fill:#000000;fill-opacity:1;stroke:none;stroke-width:15.0047;stroke-linecap:round;stroke-linejoin:round;stroke-dasharray:none;stroke-opacity:1;paint-order:markers stroke fill"
       d="M 275.41929,334.27391 V 230.52748 l 1.11656,-0.21942 c 0.61411,-0.12069 5.1362,-0.8085 10.04908,-1.52847 27.87282,-4.08471 54.45152,-11.57129 86.26708,-24.29934 4.46876,-1.78777 8.26902,-3.25048 8.44501,-3.25048 0.54954,0 0.36791,108.58796 -0.19104,114.2092 -5.56907,56.00698 -43.11953,102.76367 -96.30867,119.92065 -3.38382,1.09151 -6.87816,2.13669 -7.76521,2.32264 l -1.61281,0.33808 z"
       id="path32"
       transform="scale(0.26458333)" />
    <path
       style="fill:#000000;fill-opacity:1;stroke:none;stroke-width:15.0047;stroke-linecap:round;stroke-linejoin:round;stroke-dasharray:none;stroke-opacity:1;paint-order:markers stroke fill"
       d="m 202.71852,436.63696 c -13.43979,-4.13791 -26.48506,-10.20856 -37.46695,-17.43538 -34.7747,-22.88406 -57.47871,-59.67053 -62.24704,-100.85659 -0.6585,-5.68772 -0.77572,-15.03624 -0.77623,-61.9073 -3.3e-4,-30.36436 0.13921,-55.20792 0.3101,-55.20792 0.17088,0 4.491,1.67231 9.60025,3.71625 30.77389,12.31099 57.43674,19.77648 85.12111,23.83357 4.91288,0.71997 9.43497,1.40778 10.04908,1.52847 l 1.11657,0.21942 v 103.707 c 0,98.4534 -0.044,103.70491 -0.86844,103.66589 -0.47764,-0.0226 -2.65495,-0.59115 -4.83845,-1.26341 z"
       id="path33"
       transform="scale(0.26458333)" />
    <path
       style="display:inline;fill:#000000;fill-opacity:1;stroke:none;stroke-width:15.0047;stroke-linecap:butt;stroke-linejoin:miter;stroke-dasharray:none;stroke-opacity:1;paint-order:markers stroke fill"
       d="m 381.61699,208.78551 v -7.82804 l 8.31221,-3.65218 c 17.2073,-7.56048 57.75125,-28.18874 58.87586,-29.95532 0.4949,-0.77741 -0.30904,-4.66635 -5.97349,-28.89595 -3.43803,-14.70611 -8.85433,-36.89888 -9.35529,-38.33238 -0.14988,-0.428882 -1.01604,-0.144695 -2.83778,0.93108 -12.47954,7.36943 -49.00713,26.7319 -50.43013,26.7319 -0.31701,0 -0.57667,-0.50245 -0.57702,-1.11656 -5.5e-4,-0.94941 -1.98411,-9.82796 -2.76025,-12.35508 -0.1974,-0.64271 2.1637,-2.05903 11.0559,-6.63194 11.44101,-5.88367 30.41402,-16.340225 46.29088,-25.512206 l 8.68268,-5.015938 3.83429,15.266782 c 9.44323,37.599662 19.56271,81.893142 18.8683,82.587542 -1.80628,1.80628 -40.98744,22.3529 -56.1961,29.46926 -8.43557,3.94713 -27.03587,12.13707 -27.5647,12.13707 -0.12395,0 -0.22536,-3.52262 -0.22536,-7.82804 z"
       id="path40"
       transform="scale(0.26458333)" />
    <path
       style="display:inline;fill:#000000;fill-opacity:1;stroke:none;stroke-width:15.0047;stroke-linecap:butt;stroke-linejoin:miter;stroke-dasharray:none;stroke-opacity:1;paint-order:markers stroke fill"
       d="M 92.550805,212.69901 C 79.825045,207.18567 67.208172,201.17699 52.354477,193.55586 40.264152,187.35256 21.368738,177.11294 18.867419,175.40888 l -1.115881,-0.76021 3.079827,-13.87919 c 6.913394,-31.15509 19.696416,-83.743838 20.279055,-83.427069 0.179595,0.09764 5.797703,3.303745 12.484684,7.124673 21.618156,12.352573 33.786389,18.997036 46.599536,25.445666 l 6.92496,3.48522 -0.47935,1.6105 c -0.26363,0.88578 -1.01001,4.029 -1.6586,6.98494 -0.64859,2.95594 -1.29801,5.49319 -1.44314,5.63832 -0.40635,0.40635 -25.84002,-12.77198 -40.266512,-20.86389 L 50.369473,99.530721 47.270296,112.04486 c -2.820499,11.38886 -9.611259,40.38557 -11.964238,51.08757 l -0.952475,4.33212 8.752322,4.75519 c 11.659575,6.33473 40.450704,20.55455 50.80959,25.09465 l 8.312205,3.64308 v 7.82804 c 0,4.30542 -0.16749,7.81801 -0.37219,7.80575 -0.2047,-0.0123 -4.39182,-1.76378 -9.304705,-3.89225 z"
       id="path41"
       transform="scale(0.26458333)" />
    <path
       style="display:none;fill:#000000;fill-opacity:1;stroke:none;stroke-width:15.0047;stroke-linecap:butt;stroke-linejoin:miter;stroke-dasharray:none;stroke-opacity:1;paint-order:markers stroke fill"
       d="m 193.65831,458.25765 c 0.14885,-13.11759 0.35124,-23.93077 0.44976,-24.02929 0.0985,-0.0985 2.7461,0.68853 5.88353,1.74898 6.42152,2.17047 7.76338,2.35217 8.09173,1.0957 0.12482,-0.47764 0.25285,6.22175 0.28451,14.88753 l 0.0576,15.75597 h 33.49694 33.49694 v -14.88753 c 0,-14.11005 0.0476,-14.88753 0.91054,-14.88753 0.74784,0 10.17431,-2.8074 12.76667,-3.80219 0.61522,-0.23607 0.71406,3.06518 0.71406,23.84726 v 24.12126 H 241.59915 193.3877 Z"
       id="path42"
       transform="scale(0.26458333)" />
  </g>
  <g
     id="layer3">
    <g
       id="g17"
       transform="translate(-2.4349892e-6,1.0044691)">
      <path
         style="fill:#c4c5e3;fill-opacity:1;stroke:none;stroke-width:2.62442;stroke-linejoin:round"
         d="m 190.70313,35.03711 c -4.89414,1.083309 -9.32447,3.722687 -13.8086,5.898437 -17.61078,9.578734 -33.0782,22.863969 -46.15429,37.996095 -10.8717,13.269665 -20.22484,27.987488 -26.35157,44.062498 -0.67848,2.14674 -2.35451,5.49687 0.32618,6.95899 22.68918,12.51521 46.92758,22.45047 72.29687,27.97265 4.40586,0.92172 8.79882,2.03896 13.26172,2.60743 2.90026,-0.57271 2.10335,-4.21423 2.36523,-6.35743 0.5788,-38.21573 0.63552,-76.440854 0.45704,-114.660155 0.0637,-1.810195 0.1629,-4.536828 -2.39258,-4.478515 z"
         transform="scale(0.26458333)"
         id="path16" />
      <path
         style="fill:#36305a;fill-opacity:1;stroke:none;stroke-width:2.62442;stroke-linejoin:round"
         d="m 240.96289,16.900391 c -4.53371,-0.01454 -9.06323,-0.0051 -12.51757,0.128906 -1.40373,0 -1.16534,5.829859 -1.16602,8.25 0.0762,10.476085 -0.15148,21.002849 0.11523,31.447266 0.82532,2.744536 4.35563,1.309919 6.48047,1.664063 6.9404,-0.0771 13.93312,0.154658 20.8418,-0.113282 2.74454,-0.825317 1.30992,-4.357572 1.66406,-6.482421 -0.0762,-11.065338 0.15345,-22.181173 -0.11328,-33.214845 0,-1.65089 0.36161,-1.664062 -2.76367,-1.664062 -3.4702,0.03855 -8.00731,-0.0011 -12.54102,-0.01563 z"
         transform="scale(0.26458333)"
         id="path15" />
      <path
         id="path4"
         style="color:#000000;display:inline;fill:url(#linearGradient23);fill-rule:nonzero;stroke-width:1.06335;stroke-linejoin:round;stroke-miterlimit:8;-inkscape-stroke:none;paint-order:markers stroke fill"
         d="m 36.984666,11.325698 c -0.01002,0.0081 -0.01989,0.0164 -0.02958,0.02487 -2.386336,1.936032 -4.631124,4.040268 -6.687468,6.299521 -0.0094,0.01065 -0.01846,0.02147 -0.02735,0.03246 -2.45348,2.92732 -4.4991,6.163371 -6.08241,9.586956 -0.623784,1.339132 -1.070738,2.72458 -1.516555,4.107536 -0.13084,0.363379 -0.421561,0.446937 -4.807003,-1.546943 -0.002,-0.0014 -0.0041,-0.0029 -0.0063,-0.0043 -3.275606,-1.853806 -6.524339,-3.775185 -9.7906211,-5.680116 -0.529356,-0.308949 -1.197611,-0.04904 -1.404725,0.546373 -0.472166,1.36046 -0.740372,2.721849 -1.070761,3.982573 -0.0012,0.0054 -0.0024,0.01081 -0.0036,0.01623 -1.961295,8.032745 -3.8011034,16.097973 -5.53450482,24.183777 -0.089314,0.419023 0.079972,0.851915 0.4245761,1.085714 1.49390962,1.012423 3.05635552,1.796124 4.51500462,2.631244 0.00447,0.0027 0.00896,0.0054 0.013462,0.0081 6.1225982,3.378734 8.7216532,4.912549 15.7024342,7.625545 -0.04947,4.938421 -1.458398,13.023136 -0.659038,22.660054 0.0011,0.01253 0.0024,0.02504 0.004,0.0375 1.09367,9.210647 5.500689,17.996998 12.329162,24.604178 4.327459,4.22828 9.598783,7.54738 15.351544,9.73033 0.002,7.4e-4 0.0042,0.001 0.0063,0.002 1.752913,0.65235 5.042062,1.30726 6.97224,1.71614 0,-1.7806 0.02678,-1.63035 0.02591,-2.71075 0.0026,-0.0292 0.004,-0.0585 0.004,-0.0879 0.114707,-7.57694 0.07741,-15.14364 0.07741,-22.698283 v -5.5e-4 -5.49e-4 -5.49e-4 -5.49e-4 c 0,-10.204503 0.178096,-19.948445 0.17821,-29.955409 3.35e-4,-0.501775 -0.373123,-0.930485 -0.883587,-1.014308 -2.762479,-0.452595 -5.501583,-0.757415 -8.151556,-1.279918 -0.0043,-0.0012 -0.0085,-0.0025 -0.01283,-0.0038 C 32.189837,62.679244 19.78433,57.754509 6.7947789,50.47812 8.0665599,44.624106 9.4160649,38.788354 10.82411,32.966046 c 4.457929,2.5672 5.488384,3.415202 10.441828,5.755435 0.0041,0.002 0.0082,0.004 0.01228,0.006 0.112773,0.05161 0.282415,0.137525 0.475003,0.222878 7.43e-4,7.22e-4 0.0015,0.0014 0.0023,0.0022 0.0054,0.0025 0.01133,0.0035 0.01674,0.006 8.970317,4.120672 18.374505,7.590797 28.224564,9.480928 h 0.0023 c 10.445436,1.984427 19.762207,1.56485 27.999102,0 h 0.0023 c 9.849979,-1.890115 19.258562,-5.36018 28.229033,-9.480928 0.005,-0.0025 0.0113,-0.0035 0.0167,-0.006 7.5e-4,-0.0014 10e-4,-0.0029 0.002,-0.0043 0.19217,-0.08519 0.3618,-0.169159 0.47445,-0.220714 0.004,-0.002 0.009,-0.004 0.0128,-0.006 4.95344,-2.340234 5.98328,-3.188235 10.44122,-5.755433 1.40804,5.822306 2.75756,11.65806 4.02933,17.512071 -12.06929,7.162471 -25.393961,11.767895 -39.126287,14.745165 -0.0043,6.96e-4 -0.0085,0.0014 -0.01284,0.0022 -2.649968,0.522501 -5.389074,0.829485 -8.151555,1.282082 -0.510478,0.08354 -0.884162,0.512022 -0.884146,1.013768 1.16e-4,10.006962 0.178201,19.750908 0.178201,29.955411 v 0.002 c 0.02139,7.554611 -0.03673,15.121901 0.07798,22.698811 7.8e-5,0.0291 0.0014,0.0583 0.004,0.0871 -0.05748,1.12104 -0.06763,0.85402 -0.06763,2.71074 1.930178,-0.40886 5.312869,-1.06379 7.065785,-1.71615 0.0029,-7.2e-4 0.0057,-0.001 0.0086,-0.002 5.752211,-2.18276 11.021992,-5.50259 15.349261,-9.73035 6.828501,-6.60718 11.234921,-15.393566 12.328601,-24.604168 0.002,-0.01249 0.003,-0.02499 0.004,-0.03752 0.79268,-9.557209 -0.61161,-17.931921 -0.6591,-22.659457 6.98076,-2.712986 9.58136,-4.24734 15.70397,-7.626085 0.004,-0.0027 0.008,-0.0053 0.0118,-0.0081 1.45872,-0.835172 3.02068,-1.618887 4.51448,-2.631246 0.34481,-0.23365 0.5143,-0.66657 0.42511,-1.085713 -1.73339,-8.08576 -3.57113,-16.150441 -5.53244,-24.183236 -0.002,-0.0057 -0.004,-0.01121 -0.006,-0.01677 -0.33046,-1.260998 -0.59814,-2.622363 -1.07025,-3.982573 -0.20728,-0.595545 -0.87591,-0.855258 -1.40523,-0.545833 -3.26633,1.904957 -6.51295,3.825801 -9.78856,5.679576 -0.003,0.0014 -0.006,0.0028 -0.008,0.0043 -2.5495,1.46761 -4.64525,2.180942 -4.80699,1.547484 -0.44602,-1.383038 -0.89285,-2.769076 -1.51656,-4.108077 l -0.002,-0.0016 c -1.58315,-3.422612 -3.6273,-6.658733 -6.080181,-9.585333 -0.009,-0.011 -0.018,-0.02181 -0.0273,-0.03246 -2.05634,-2.259237 -4.301131,-4.363489 -6.687467,-6.299521 -0.0097,-0.0082 -0.01958,-0.01639 -0.02958,-0.02434 C 88.521893,9.4490576 79.218649,3.002002 69.068017,3.002002 68.121288,3.0017058 67.353744,2.9588812 67.354006,3.6440316 V 14.93414 H 60.647623 V 3.6440114 C 60.647884,2.9586063 59.879792,3.0013255 58.93271,3.0018745 48.688734,2.8670939 38.691451,10.041157 36.984666,11.325698 Z M 50.513627,42.02537 c -8.858476,-1.549298 -14.972301,-3.998117 -22.781805,-8.123179 0.480957,-2.026316 1.454496,-3.996157 2.565362,-5.964124 1.846689,-3.108802 3.867131,-6.105814 6.37545,-8.66299 5.6e-4,-7.2e-4 0.0011,-0.0014 0.0017,-0.0022 6.973075,-7.15055 12.622844,-9.155908 13.974384,-9.6399409 0.04695,10.7979109 -0.04956,21.5950679 -0.135116,32.3924669 z M 63.96279,20.036205 h 0.03796 0.04801 c 7.43e-4,6.71e-4 0.0015,0.0013 0.0023,0.002 0.143441,0.0036 0.285388,0.008 0.428677,0.01504 2.466772,0.121662 4.753227,0.8802 5.440511,1.491607 0.36753,0.326953 0.398915,0.718872 0.455482,3.943177 0.0338,1.926976 0.05526,4.565168 0.05526,7.627557 v 9.906593 l -0.323182,0.341556 c -1.156812,1.222576 -2.767822,1.679438 -5.740249,1.745856 h -0.0023 c -0.08496,0 -0.209436,0.0042 -0.324856,0.0055 -0.0097,1.14e-4 -0.01776,-1.16e-4 -0.02735,0 -0.0046,-7e-5 -0.0047,6.9e-5 -0.01056,0 -0.0091,-1.05e-4 -0.01823,-1.05e-4 -0.02735,0 -0.0059,6.8e-5 -0.0078,-7.4e-5 -0.01284,0 -0.01002,-1.32e-4 -0.01887,1.33e-4 -0.02902,0 -0.103091,-0.0013 -0.210622,-0.0036 -0.299739,-0.0055 -2.972421,-0.0664 -4.584353,-0.522511 -5.740249,-1.745892 l -0.322668,-0.341505 v -9.906625 c 0,-3.062387 0.0209,-5.700581 0.0547,-7.627556 0.05625,-3.208226 0.08675,-3.566408 0.455461,-3.943178 0.655285,-0.639141 2.974296,-1.369941 5.441068,-1.491605 h 0.0017 c 0.14566,-0.0073 0.290232,-0.01179 0.43705,-0.01555 7.46e-4,-5.01e-4 0.0015,-9.7e-4 0.0023,-0.0015 z m 42.87996,18.026941 c -0.01,0.08366 -0.0228,0.214358 -0.0228,0.214223 l -0.0128,0.01677 c 0.01,-0.06415 0.0249,-0.161792 0.0358,-0.230992 z m -85.651066,0.236943 c 0.07848,0.162173 0.199312,0.301659 0.350532,0.404641 l -0.346067,-0.380297 c 3e-6,1.2e-5 -0.004,-0.02099 -0.0044,-0.02434 z m 0.05917,26.16262 c 0.10626,0.04788 0.238194,0.08962 0.248946,0.09196 0.01229,0.0027 -0.136379,-0.03266 -0.246713,-0.08817 z" />
      <path
         id="path12"
         style="fill:#36305a;fill-opacity:1;stroke:none;stroke-width:2.62442;stroke-linejoin:round"
         d="m 241.85352,73.908204 c -7.64609,0.478177 -15.73495,1.303067 -22.39063,5.414063 -2.43487,1.410034 -3.36263,4.220371 -3.11914,6.90625 -0.74661,25.365083 -0.70467,50.745383 -0.73047,76.119143 0.93679,2.52558 3.50085,4.13185 5.60743,5.72656 7.76403,4.81642 17.33429,4.12895 26.08789,3.99805 7.01205,-0.21661 14.41618,-1.96936 19.41015,-7.23633 2.42364,-1.94731 0.90883,-5.42782 1.32618,-8.09375 -0.11999,-23.39243 0.23197,-46.79719 -0.56446,-70.179689 -0.007,-3.066154 -0.87942,-6.64966 -4.10351,-7.824219 -6.59336,-3.324875 -14.20429,-4.58214 -21.52344,-4.830078 z M 40.863282,123.11524 c -0.292638,0.0696 -0.586472,0.1819 -0.88086,0.21484 -1.844484,2.11318 -1.574639,5.28195 -2.529297,7.82617 -4.550801,19.41517 -9.344059,38.78765 -13.160156,58.36328 -0.864785,2.91676 2.623409,3.88883 4.5,5.08399 37.724852,20.70662 77.557961,38.07315 119.472661,48.26367 17.89911,4.52617 36.23771,7.45893 54.42773,10.13086 1.40326,0.0916 3.32871,0.51554 2.94141,2.41211 0.57501,15.07145 0.0104,30.31636 0.0449,45.45703 -0.35239,54.50571 -0.47482,108.4505 -0.625,162.95703 0.71746,1.24267 2.09488,1.00586 4.74414,1.00586 h 66.82031 c 2.15142,0 1.73422,-2.78274 2.09571,-4.99023 0.0465,-61.95012 -0.31498,-123.90072 -0.73047,-185.84961 -0.0466,-6.47093 -0.094,-12.94313 -0.14063,-19.41406 1.58356,-2.27977 4.84581,-1.41258 7.19922,-2.18165 13.14487,-1.93548 26.3637,-3.8691 39.25586,-7.24414 46.13125,-11.05986 91.27537,-27.45158 132.33204,-51.41406 1.85862,-0.89715 3.83994,-2.74892 2.90039,-5.01562 -4.70774,-21.45016 -9.58072,-42.87338 -14.89063,-64.18165 -1.16167,-2.6451 -3.92435,-0.78471 -5.55469,0.22657 -14.07445,8.26271 -28.19415,16.53307 -43.20898,23.0039 -42.4701,19.03306 -87.41201,34.18141 -133.9668,37.78516 -29.10621,2.02335 -58.24695,-0.53334 -86.52735,-7.28516 -35.83353,-8.4921 -70.51337,-21.92862 -103.609372,-38.17578 -10.262431,-5.20097 -19.891936,-11.50153 -30.033203,-16.93555 -0.293161,-0.13957 -0.584316,-0.11261 -0.876953,-0.043 z"
         transform="scale(0.26458333)" />
    </g>
  </g>
</svg>
